<?xml version="1.0" encoding="UTF-8"?>
<svg id="Capa_1" data-name="Capa 1" xmlns="http://www.w3.org/2000/svg" viewBox="0 0 8727.27 1695.79">
  <defs>
    <style>
      .cls-1 {
        fill: #6dc3c1;
      }

      .cls-2 {
        fill: #004264;
      }
    </style>
  </defs>
  <path class="cls-2" d="M1955.38,1142.97c-341.22-32.35-378.69-284.77-378.69-393.69v-129.21h579.84v-215.52h-783.91v334.7c0,366.97,214.31,587,603.44,619.57l183.38,3.22v-523.66h-204.07v304.58Z"/>
  <polygon class="cls-2" points="3027.4 1152.56 2630.46 1152.56 2631.61 404.56 2432.16 404.56 2431.02 1363.12 3226.85 1363.12 3226.85 571.31 3027.4 571.31 3027.4 1152.56"/>
  <path class="cls-2" d="M3971.4,401.2h-210.12l-349.63,788.93,70.44,109.77,581.9-159.11,137.5,244.24,172.85-78.88-451.17-784.52,48.23-120.42ZM3971.11,973.75l-292.81,79.3,151.44-328.65,141.38,249.36Z"/>
  <path class="cls-2" d="M6040.6,404.56h-210.12l-363.07,785.57,70.44,109.77,581.89-159.11,137.5,244.24,172.85-78.88-451.17-784.52,61.68-117.06ZM6026.86,973.75l-292.81,79.3,151.44-328.65,141.37,249.36Z"/>
  <path class="cls-2" d="M7242.89,404.56h-475.5l.13,420.47c0,171.09-23.19,367.47-204,367.47h-16.81l101.27,174.21,6.62-1.14c295.57-50.87,293.32-311.16,291.67-501.22-.12-13.51-.23-26.65-.23-39.32v-239.85h118.31v339.87h235.2v125.13c0,97.85-27.6,130.87-109.36,130.87h-173.16v189.99h176.02c197.11,0,285.01-98.96,285.01-320.86v-316.56h-235.18v-329.05Z"/>
  <polygon class="cls-2" points="8346.18 585.17 8346.18 404.56 7688.75 404.56 7688.75 585.17 7916.38 585.17 7916.38 1181.03 7688.75 1181.03 7688.75 1371.03 8346.18 1371.03 8346.18 1181.03 8096.33 1181.03 8096.33 585.17 8346.18 585.17"/>
  <polygon class="cls-2" points="4786.55 1141.98 5280.71 570.19 5185.83 399.49 4525.79 399.49 4554.47 593.18 5006.63 593.18 4516.9 1159.85 4512.42 1165.02 4609.72 1335.68 5341.1 1335.68 5232.72 1141.98 4786.55 1141.98"/>
  <path class="cls-1" d="M383.36,599.51c-25.04,32.84-51.72,60.75-81.69,84.97-4.52,3.28-6.98,4.93-9.85,4.93-1.64,0-3.69-.82-6.57-2.46l-48.85-29.56c64.45-48.85,105.91-99.75,135.88-165.43l3.69-1.23,58.7,21.76.82,4.1c-5.34,10.26-10.67,19.7-16.83,29.56l52.54-.82,31.2-2.46,35.71,33.25c3.69,3.28,5.75,5.75,5.75,8.62,0,2.05-.82,4.51-2.46,8.21-51.72,111.25-118.22,187.19-234.81,240.55-5.34,2.05-8.21,3.28-10.67,3.28-2.05,0-4.11-.82-6.98-3.28l-50.9-39.41c91.54-29.96,177.75-95.23,223.72-194.99l-78.41.41ZM499.94,510.84l21.35-15.19,4.1-.41c15.19,12.72,29.56,27.09,41.87,43.51l-.41,4.1-22.58,16.01h-4.11c-12.73-16.83-24.22-30.38-40.64-44.33l.41-3.69ZM538.53,484.98l20.94-15.19,4.1-.41c15.19,12.73,28.32,25.86,40.64,42.28l-.41,4.1-21.35,15.6h-4.1c-12.73-16.83-23.81-28.74-40.23-42.69l.41-3.69Z"/>
  <path class="cls-1" d="M815.61,601.97c0,6.57,0,15.19-.41,21.35,19.29-15.19,40.64-34.07,54.6-50.08h-162.97l-71.02,1.23-2.87-3.28v-53.78l3.69-2.46,69.37,1.23h182.67l41.05-2.05,28.74,38.59c1.23,2.05,2.05,3.69,2.05,5.75,0,2.46-.82,4.93-3.28,7.8-20.52,25.04-56.65,61.99-90.31,91.95-6.57,5.75-8.62,5.75-14.78,1.64l-37.77-25.45c-4.1,88.26-27.5,146.55-98.11,198.68-2.87,2.05-4.93,2.87-7.39,2.87s-5.34-1.23-9.03-3.28l-54.6-27.92c85.79-49.26,103.04-101.8,101.39-202.38l2.87-3.28h63.22l2.87,2.87Z"/>
  <path class="cls-1" d="M299.61,1025.68l-52.13,1.23-2.87-3.28v-52.54l3.69-2.46,50.49,1.23h23.81v-72.25l3.28-2.87h56.24l3.28,3.28v71.84h58.29v-72.66l3.28-2.87h57.47l3.28,3.28v72.25h15.19l58.7-1.23,3.69,2.46v52.54l-2.87,3.28-59.52-1.23h-16.01c-2.87,52.54-11.08,91.13-28.74,118.22-23.81,38.18-63.22,66.09-107.14,80.87-3.28.82-5.75,1.64-7.8,1.64-2.87,0-4.93-1.23-8.21-4.11l-47.21-38.18c60.75-15.6,94.82-36.53,115.35-70.19,13.55-22.58,18.47-45.15,20.11-88.26h-57.88v4.51l1.64,72.66h-66.5l2.05-73.48v-3.69h-22.99Z"/>
  <path class="cls-1" d="M513.39,875.46l21.2-8.62c.69-.28,1.45-.39,2.19-.32l.92.09c1.31.13,2.5.8,3.28,1.86,11.08,15.09,21.04,31.27,28.87,48.89.45,1.02.52,2.18.2,3.24l-.09.32c-.4,1.35-1.4,2.44-2.71,2.95l-22.48,8.92c-.86.34-1.8.41-2.7.21l-2.31-.51c-8.62-19.29-16.83-35.3-29.56-52.54l.56-1.69c.42-1.27,1.39-2.3,2.63-2.81Z"/>
  <path class="cls-1" d="M554.94,860.24l22.49-9.69c.86-.37,1.81-.47,2.72-.29l.97.19c1.11.22,2.12.85,2.8,1.76,11.08,14.7,20.35,29.82,28.17,47.42.47,1.06.53,2.27.16,3.37h0c-.42,1.26-1.37,2.28-2.59,2.79l-21.35,8.9c-.88.36-1.84.45-2.77.24l-2.27-.51c-8.62-19.29-16.83-33.66-29.56-50.9l1.23-3.28Z"/>
  <path class="cls-1" d="M726.52,1017.05c40.23-18.88,88.67-44.33,131.77-75.53h3.69l40.23,48.44-.41,4.1c-51.72,33.66-111.66,61.58-175.69,85.38v27.91c0,11.49.41,17.65,3.69,21.76,4.93,5.75,13.55,6.98,30.79,6.98,46.39,0,84.56-2.87,140.39-9.03l3.28,2.05,2.46,59.93-2.46,2.87c-43.51,3.69-103.86,6.98-140.8,6.98-39.82,0-71.43-3.69-89.08-25.86-11.49-13.96-12.31-34.07-12.31-61.99l1.23-190.06,2.87-2.87h57.88l2.87,2.87-.41,96.06ZM867.32,915.66l21.35-15.19,4.11-.41c15.19,12.73,29.56,27.09,41.87,43.51l-.41,4.1-22.58,16.01h-4.11c-12.73-16.83-24.22-30.38-40.64-44.33l.41-3.69ZM905.91,889.8l20.94-15.19,4.1-.41c15.19,12.72,28.32,25.86,40.64,42.28l-.41,4.1-21.35,15.6h-4.11c-12.73-16.83-23.81-28.74-40.23-42.69l.41-3.69Z"/>
  <path class="cls-1" d="M1087.84,457.35c.02-21.63-11.68-41.66-30.53-52.27l-240.6-135.36h.01v-65.9c0-14.49-11.75-26.23-26.23-26.23h-372.96c-14.49,0-26.23,11.75-26.23,26.23v65.9h0l-240.6,135.36c-18.86,10.61-30.55,30.64-30.53,52.27l.41,390.54-.41,390.54c-.02,21.63,11.68,41.66,30.53,52.27l240.6,135.36h0v65.9c0,14.49,11.75,26.23,26.23,26.23h372.96c14.49,0,26.23-11.75,26.23-26.23v-65.9h-.01l240.6-135.36c18.86-10.61,30.55-30.64,30.53-52.27l-.41-390.54.41-390.54ZM1051.8,847.9v5.98s0,0,0,0l.41,384.6c0,8.76-4.73,16.88-12.37,21.18l-232.46,130.79h-406.76l-232.46-130.79c-7.64-4.3-12.38-12.41-12.37-21.18l.41-384.6h.01v-5.98s0-5.98,0-5.98h-.01l-.41-384.6c0-8.76,4.73-16.88,12.37-21.18l232.46-130.79h406.76l232.46,130.79c7.64,4.3,12.38,12.41,12.37,21.18l-.41,384.6h-.01v5.98Z"/>
</svg>