<svg id="Capa_1" data-name="Capa 1" viewBox="0 0 1080 1080" version="1.1" width="1080" height="1080" style="background-color: #000;" xmlns="http://www.w3.org/2000/svg">
  <defs id="defs1">
    <style id="style1">
      .cls-1 { fill: #7addd1; }
    </style>
  </defs>
  <g id="g11" transform="translate(192 205.469)scale(.63404)">
    <path class="cls-1" d="M328.211 279.235c-25.04 32.84-51.72 60.75-81.69 84.97-4.52 3.28-6.98 4.93-9.85 4.93-1.64 0-3.69-.82-6.57-2.46l-48.85-29.56c64.45-48.85 105.91-99.75 135.88-165.43l3.69-1.23 58.7 21.76.82 4.1c-5.34 10.26-10.67 19.7-16.83 29.56l52.54-.82 31.2-2.46 35.71 33.25c3.69 3.28 5.75 5.75 5.75 8.62 0 2.05-.82 4.51-2.46 8.21-51.72 111.25-118.22 187.19-234.81 240.55-5.34 2.05-8.21 3.28-10.67 3.28-2.05 0-4.11-.82-6.98-3.28l-50.9-39.41c91.54-29.96 177.75-95.23 223.72-194.99l-78.41.41zm116.58-88.67 21.35-15.19 4.1-.41c15.19 12.72 29.56 27.09 41.87 43.51l-.41 4.1-22.58 16.01h-4.11c-12.73-16.83-24.22-30.38-40.64-44.33l.41-3.69zm38.59-25.86 20.94-15.19 4.1-.41c15.19 12.73 28.32 25.86 40.64 42.28l-.41 4.1-21.35 15.6h-4.1c-12.73-16.83-23.81-28.74-40.23-42.69z" id="path5"/>
    <path class="cls-1" d="M760.461 281.695c0 6.57 0 15.19-.41 21.35 19.29-15.19 40.64-34.07 54.6-50.08h-162.97l-71.02 1.23-2.87-3.28v-53.78l3.69-2.46 69.37 1.23h182.67l41.05-2.05 28.74 38.59c1.23 2.05 2.05 3.69 2.05 5.75 0 2.46-.82 4.93-3.28 7.8-20.52 25.04-56.65 61.99-90.31 91.95-6.57 5.75-8.62 5.75-14.78 1.64l-37.77-25.45c-4.1 88.26-27.5 146.55-98.11 198.68-2.87 2.05-4.93 2.87-7.39 2.87s-5.34-1.23-9.03-3.28l-54.6-27.92c85.79-49.26 103.04-101.8 101.39-202.38l2.87-3.28h63.22l2.87 2.87z" id="path6"/>
    <path class="cls-1" d="m244.461 705.405-52.13 1.23-2.87-3.28v-52.54l3.69-2.46 50.49 1.23h23.81v-72.25l3.28-2.87h56.24l3.28 3.28v71.84h58.29v-72.66l3.28-2.87h57.47l3.28 3.28v72.25h15.19l58.7-1.23 3.69 2.46v52.54l-2.87 3.28-59.52-1.23h-16.01c-2.87 52.54-11.08 91.13-28.74 118.22-23.81 38.18-63.22 66.09-107.14 80.87-3.28.82-5.75 1.64-7.8 1.64-2.87 0-4.93-1.23-8.21-4.11l-47.21-38.18c60.75-15.6 94.82-36.53 115.35-70.19 13.55-22.58 18.47-45.15 20.11-88.26h-57.88v4.51l1.64 72.66h-66.5l2.05-73.48v-3.69h-22.99z" id="path7"/>
    <path class="cls-1" d="m458.241 555.185 21.2-8.62c.69-.28 1.45-.39 2.19-.32l.92.09c1.31.13 2.5.8 3.28 1.86 11.08 15.09 21.04 31.27 28.87 48.89a4.7 4.7 0 0 1 .2 3.24l-.09.32c-.4 1.35-1.4 2.44-2.71 2.95l-22.48 8.92c-.86.34-1.8.41-2.7.21l-2.31-.51c-8.62-19.29-16.83-35.3-29.56-52.54l.56-1.69c.42-1.27 1.39-2.3 2.63-2.81z" id="path8"/>
    <path class="cls-1" d="m499.791 539.965 22.49-9.69a4.6 4.6 0 0 1 2.72-.29l.97.19c1.11.22 2.12.85 2.8 1.76 11.08 14.7 20.35 29.82 28.17 47.42.47 1.06.53 2.27.16 3.37a4.6 4.6 0 0 1-2.59 2.79l-21.35 8.9c-.88.36-1.84.45-2.77.24l-2.27-.51c-8.62-19.29-16.83-33.66-29.56-50.9z" id="path9"/>
    <path class="cls-1" d="M671.371 696.775c40.23-18.88 88.67-44.33 131.77-75.53h3.69l40.23 48.44-.41 4.1c-51.72 33.66-111.66 61.58-175.69 85.38v27.91c0 11.49.41 17.65 3.69 21.76 4.93 5.75 13.55 6.98 30.79 6.98 46.39 0 84.56-2.87 140.39-9.03l3.28 2.05 2.46 59.93-2.46 2.87c-43.51 3.69-103.86 6.98-140.8 6.98-39.82 0-71.43-3.69-89.08-25.86-11.49-13.96-12.31-34.07-12.31-61.99l1.23-190.06 2.87-2.87h57.88l2.87 2.87-.41 96.06zm140.8-101.39 21.35-15.19 4.11-.41c15.19 12.73 29.56 27.09 41.87 43.51l-.41 4.1-22.58 16.01h-4.11c-12.73-16.83-24.22-30.38-40.64-44.33zm38.59-25.86 20.94-15.19 4.1-.41c15.19 12.72 28.32 25.86 40.64 42.28l-.41 4.1-21.35 15.6h-4.11c-12.73-16.83-23.81-28.74-40.23-42.69l.41-3.69z" id="path10"/>
    <path class="cls-1" d="M1032.691 137.075c.02-21.63-11.68-41.66-30.53-52.27l-240.6-135.36h.01v-65.9c0-14.49-11.75-26.23-26.23-26.23h-372.96c-14.49 0-26.23 11.75-26.23 26.23v65.9l-240.6 135.36c-18.86 10.61-30.55 30.64-30.53 52.27l.41 390.54-.41 390.54c-.02 21.63 11.68 41.66 30.53 52.27l240.6 135.36v65.9c0 14.49 11.75 26.23 26.23 26.23h372.96c14.49 0 26.23-11.75 26.23-26.23v-65.9h-.01l240.6-135.36c18.86-10.61 30.55-30.64 30.53-52.27l-.41-390.54zm-36.04 390.55v5.98l.41 384.6c0 8.76-4.73 16.88-12.37 21.18l-232.46 130.79h-406.76l-232.46-130.79a24.3 24.3 0 0 1-12.37-21.18l.41-384.6h.01v-11.96h-.01l-.41-384.6c0-8.76 4.73-16.88 12.37-21.18l232.46-130.79h406.76l232.46 130.79a24.3 24.3 0 0 1 12.37 21.18l-.41 384.6h-.01v5.98z" id="path11"/>
  </g>
</svg>
