<?xml version="1.0" encoding="UTF-8" standalone="no"?>
<svg
   id="Capa_1"
   data-name="Capa 1"
   viewBox="0 0 8226.0102 1340.5999"
   version="1.1"
   sodipodi:docname="guazabi-imagotipo.svg"
   width="8226.0098"
   height="1340.6"
   inkscape:export-filename="guazabi-imagotipo.svg"
   inkscape:export-xdpi="96"
   inkscape:export-ydpi="96"
   xmlns:inkscape="http://www.inkscape.org/namespaces/inkscape"
   xmlns:sodipodi="http://sodipodi.sourceforge.net/DTD/sodipodi-0.dtd"
   xmlns="http://www.w3.org/2000/svg"
   xmlns:svg="http://www.w3.org/2000/svg">
  <sodipodi:namedview
     id="namedview11"
     pagecolor="#ffffff"
     bordercolor="#000000"
     borderopacity="0.25"
     inkscape:showpageshadow="2"
     inkscape:pageopacity="0.0"
     inkscape:pagecheckerboard="0"
     inkscape:deskcolor="#d1d1d1">
    <inkscape:page
       x="0"
       y="0"
       width="8226.0098"
       height="1340.5999"
       id="page2"
       margin="0"
       bleed="0" />
  </sodipodi:namedview>
  <defs
     id="defs1">
    <style
       id="style1">
      .cls-1 {
        fill: #6dc3c1;
      }

      .cls-2 {
        fill: #004264;
      }
    </style>
  </defs>
  <path
     class="cls-2"
     d="M 1835.21,965.38 C 1493.99,933.03 1456.52,680.61 1456.52,571.69 V 442.48 h 579.84 V 226.96 h -783.91 v 334.7 c 0,366.97 214.31,587 603.44,619.57 l 183.38,3.22 V 660.79 H 1835.2 v 304.58 z"
     id="path1" />
  <polygon
     class="cls-2"
     points="3027.4,1152.56 2630.46,1152.56 2631.61,404.56 2432.16,404.56 2431.02,1363.12 3226.85,1363.12 3226.85,571.31 3027.4,571.31 "
     id="polygon1"
     transform="translate(-120.16997,-177.59)" />
  <path
     class="cls-2"
     d="m 3851.23,223.61 h -210.12 l -349.63,788.93 70.44,109.77 581.9,-159.11 137.5,244.24 172.85,-78.88 L 3803,344.04 3851.23,223.62 Z m -0.29,572.55 -292.81,79.3 151.44,-328.65 141.38,249.36 z"
     id="path2" />
  <polygon
     class="cls-2"
     points="4609.72,1335.68 5341.1,1335.68 5232.72,1141.98 4786.55,1141.98 5280.71,570.19 5185.83,399.49 4525.79,399.49 4554.47,593.18 5006.63,593.18 4516.9,1159.85 4512.42,1165.02 "
     id="polygon5"
     transform="translate(-120.16997,-177.59)" />
  <path
     class="cls-2"
     d="m 5920.43,226.97 h -210.12 l -363.07,785.57 70.44,109.77 581.89,-159.11 137.5,244.24 172.85,-78.88 -451.17,-784.52 61.68,-117.06 z m -13.74,569.19 -292.81,79.3 151.44,-328.65 141.37,249.36 z"
     id="path3" />
  <path
     class="cls-2"
     d="m 7122.72,226.97 h -475.5 l 0.13,420.47 c 0,171.09 -23.19,367.47 -204,367.47 h -16.81 l 101.27,174.21 6.62,-1.14 c 295.57,-50.87 293.32,-311.16 291.67,-501.22 -0.12,-13.51 -0.23,-26.65 -0.23,-39.32 V 407.59 h 118.31 v 339.87 h 235.2 v 125.13 c 0,97.85 -27.6,130.87 -109.36,130.87 h -173.16 v 189.99 h 176.02 c 197.11,0 285.01,-98.96 285.01,-320.86 V 556.03 H 7122.71 V 226.98 Z"
     id="path4" />
  <polygon
     class="cls-2"
     points="8346.18,1371.03 8346.18,1181.03 8096.33,1181.03 8096.33,585.17 8346.18,585.17 8346.18,404.56 7688.75,404.56 7688.75,585.17 7916.38,585.17 7916.38,1181.03 7688.75,1181.03 7688.75,1371.03 "
     id="polygon4"
     transform="translate(-120.16997,-177.59)" />
  <path
     class="cls-1"
     d="m 263.19003,421.92 c -25.04,32.84 -51.72,60.75 -81.69,84.97 -4.52,3.28 -6.98,4.93 -9.85,4.93 -1.64,0 -3.69,-0.82 -6.57,-2.46 l -48.85,-29.56 c 64.45,-48.85 105.91,-99.75 135.88,-165.43 l 3.69,-1.23 58.7,21.76 0.82,4.1 c -5.34,10.26 -10.67,19.7 -16.83,29.56 l 52.54,-0.82 31.2,-2.46 35.71,33.25 c 3.69,3.28 5.75,5.75 5.75,8.62 0,2.05 -0.82,4.51 -2.46,8.21 -51.72,111.25 -118.22,187.19 -234.81,240.55 -5.34,2.05 -8.21,3.28 -10.67,3.28 -2.05,0 -4.11,-0.82 -6.98,-3.28 l -50.9,-39.41 c 91.54,-29.96 177.75,-95.23 223.72,-194.99 l -78.41,0.41 z m 116.58,-88.67 21.35,-15.19 4.1,-0.41 c 15.19,12.72 29.56,27.09 41.87,43.51 l -0.41,4.1 -22.58,16.01 h -4.11 c -12.73,-16.83 -24.22,-30.38 -40.64,-44.33 l 0.41,-3.69 z m 38.59,-25.86 20.94,-15.19 4.1,-0.41 c 15.19,12.73 28.32,25.86 40.64,42.28 l -0.41,4.1 -21.35,15.6 h -4.1 c -12.73,-16.83 -23.81,-28.74 -40.23,-42.69 z"
     id="path5"
     inkscape:export-filename="path11.svg"
     inkscape:export-xdpi="96"
     inkscape:export-ydpi="96" />
  <path
     class="cls-1"
     d="m 695.44003,424.38 c 0,6.57 0,15.19 -0.41,21.35 19.29,-15.19 40.64,-34.07 54.6,-50.08 h -162.97 l -71.02,1.23 -2.87,-3.28 v -53.78 l 3.69,-2.46 69.37,1.23 h 182.67 l 41.05,-2.05 28.74,38.59 c 1.23,2.05 2.05,3.69 2.05,5.75 0,2.46 -0.82,4.93 -3.28,7.8 -20.52,25.04 -56.65,61.99 -90.31,91.95 -6.57,5.75 -8.62,5.75 -14.78,1.64 l -37.77,-25.45 c -4.1,88.26 -27.5,146.55 -98.11,198.68 -2.87,2.05 -4.93,2.87 -7.39,2.87 -2.46,0 -5.34,-1.23 -9.03,-3.28 l -54.6,-27.92 c 85.79,-49.26 103.04,-101.8 101.39,-202.38 l 2.87,-3.28 h 63.22 l 2.87,2.87 z"
     id="path6" />
  <path
     class="cls-1"
     d="m 179.44003,848.09 -52.13,1.23 -2.87,-3.28 V 793.5 l 3.69,-2.46 50.49,1.23 h 23.81 v -72.25 l 3.28,-2.87 h 56.24 l 3.28,3.28 v 71.84 h 58.29 v -72.66 l 3.28,-2.87 h 57.47 l 3.28,3.28 v 72.25 h 15.19 l 58.7,-1.23 3.69,2.46 v 52.54 l -2.87,3.28 -59.52,-1.23 h -16.01 c -2.87,52.54 -11.08,91.13 -28.74,118.22 -23.81,38.18 -63.22,66.09 -107.14,80.87 -3.28,0.82 -5.75,1.64 -7.8,1.64 -2.87,0 -4.93,-1.23 -8.21,-4.11 l -47.21,-38.18 c 60.75,-15.6 94.82,-36.53 115.35,-70.19 13.55,-22.58 18.47,-45.15 20.11,-88.26 h -57.88 v 4.51 l 1.64,72.66 h -66.5 l 2.05,-73.48 v -3.69 h -22.99 z"
     id="path7" />
  <path
     class="cls-1"
     d="m 393.22003,697.87 21.2,-8.62 c 0.69,-0.28 1.45,-0.39 2.19,-0.32 l 0.92,0.09 c 1.31,0.13 2.5,0.8 3.28,1.86 11.08,15.09 21.04,31.27 28.87,48.89 0.45,1.02 0.52,2.18 0.2,3.24 l -0.09,0.32 c -0.4,1.35 -1.4,2.44 -2.71,2.95 l -22.48,8.92 c -0.86,0.34 -1.8,0.41 -2.7,0.21 l -2.31,-0.51 c -8.62,-19.29 -16.83,-35.3 -29.56,-52.54 l 0.56,-1.69 c 0.42,-1.27 1.39,-2.3 2.63,-2.81 z"
     id="path8" />
  <path
     class="cls-1"
     d="m 434.77003,682.65 22.49,-9.69 c 0.86,-0.37 1.81,-0.47 2.72,-0.29 l 0.97,0.19 c 1.11,0.22 2.12,0.85 2.8,1.76 11.08,14.7 20.35,29.82 28.17,47.42 0.47,1.06 0.53,2.27 0.16,3.37 v 0 c -0.42,1.26 -1.37,2.28 -2.59,2.79 l -21.35,8.9 c -0.88,0.36 -1.84,0.45 -2.77,0.24 l -2.27,-0.51 c -8.62,-19.29 -16.83,-33.66 -29.56,-50.9 z"
     id="path9" />
  <path
     class="cls-1"
     d="m 606.35003,839.46 c 40.23,-18.88 88.67,-44.33 131.77,-75.53 h 3.69 l 40.23,48.44 -0.41,4.1 c -51.72,33.66 -111.66,61.58 -175.69,85.38 v 27.91 c 0,11.49 0.41,17.65 3.69,21.76 4.93,5.75 13.55,6.98 30.79,6.98 46.39,0 84.56,-2.87 140.39,-9.03 l 3.28,2.05 2.46,59.93 -2.46,2.87 c -43.51,3.69 -103.86,6.98 -140.8,6.98 -39.82,0 -71.43,-3.69 -89.08,-25.86 -11.49,-13.96 -12.31,-34.07 -12.31,-61.99 l 1.23,-190.06 2.87,-2.87 h 57.88 l 2.87,2.87 -0.41,96.06 z m 140.8,-101.39 21.35,-15.19 4.11,-0.41 c 15.19,12.73 29.56,27.09 41.87,43.51 l -0.41,4.1 -22.58,16.01 h -4.11 c -12.73,-16.83 -24.22,-30.38 -40.64,-44.33 z m 38.59,-25.86 20.94,-15.19 4.1,-0.41 c 15.19,12.72 28.32,25.86 40.64,42.28 l -0.41,4.1 -21.35,15.6 h -4.11 c -12.73,-16.83 -23.81,-28.74 -40.23,-42.69 l 0.41,-3.69 z"
     id="path10" />
  <path
     class="cls-1"
     d="m 967.67003,279.76 c 0.02,-21.63 -11.68,-41.66 -30.53,-52.27 l -240.6,-135.36 h 0.01 v -65.9 c 0,-14.49 -11.75,-26.23 -26.23,-26.23 h -372.96 c -14.49,0 -26.23,11.75 -26.23,26.23 v 65.9 0 L 30.530026,227.49 C 11.670026,238.1 -0.01997438,258.13 2.5621957e-5,279.76 L 0.41002562,670.3 2.5621957e-5,1060.84 C -0.01997438,1082.47 11.680026,1102.5 30.530026,1113.11 l 240.600004,135.36 v 0 65.9 c 0,14.49 11.75,26.23 26.23,26.23 h 372.96 c 14.49,0 26.23,-11.75 26.23,-26.23 v -65.9 h -0.01 l 240.6,-135.36 c 18.86,-10.61 30.55,-30.64 30.53,-52.27 l -0.41,-390.54 z m -36.04,390.55 v 5.98 c 0,0 0,0 0,0 l 0.41,384.6 c 0,8.76 -4.73,16.88 -12.37,21.18 l -232.46,130.79 h -406.76 L 47.990026,1082.07 c -7.64,-4.3 -12.38,-12.41 -12.37,-21.18 l 0.41,-384.6 h 0.01 v -5.98 c 0,0 0,-5.98 0,-5.98 h -0.01 l -0.41,-384.6 c 0,-8.76 4.73,-16.88 12.37,-21.18 L 280.45003,127.76 h 406.76 l 232.46,130.79 c 7.64,4.3 12.38,12.41 12.37,21.18 l -0.41,384.6 h -0.01 v 5.98 z"
     id="path11"
     inkscape:export-filename="path11.svg"
     inkscape:export-xdpi="96"
     inkscape:export-ydpi="96" />
</svg>
