<?xml version="1.0" encoding="UTF-8" standalone="no"?>
<svg
   id="Capa_1"
   data-name="Capa 1"
   viewBox="0 0 1080.0001 1079.9999"
   version="1.1"
   sodipodi:docname="guazabi-isologo.svg"
   width="1080"
   height="1080"
   inkscape:export-filename="guazabi-favicon.svg"
   inkscape:export-xdpi="96"
   inkscape:export-ydpi="96"
   inkscape:version="1.4.4 (dcaf3e7, 2026-05-05)"
   xmlns:inkscape="http://www.inkscape.org/namespaces/inkscape"
   xmlns:sodipodi="http://sodipodi.sourceforge.net/DTD/sodipodi-0.dtd"
   xmlns="http://www.w3.org/2000/svg"
   xmlns:svg="http://www.w3.org/2000/svg">
  <sodipodi:namedview
     id="namedview11"
     pagecolor="#ffffff"
     bordercolor="#000000"
     borderopacity="0.25"
     inkscape:showpageshadow="2"
     inkscape:pageopacity="0.0"
     inkscape:pagecheckerboard="0"
     inkscape:deskcolor="#d1d1d1"
     showgrid="true"
     inkscape:zoom="0.7830032"
     inkscape:cx="484.03378"
     inkscape:cy="471.90101"
     inkscape:window-width="2560"
     inkscape:window-height="1369"
     inkscape:window-x="-8"
     inkscape:window-y="-8"
     inkscape:window-maximized="1"
     inkscape:current-layer="Capa_1"
     inkscape:export-bgcolor="#ffffffff">
    <inkscape:grid
       id="grid11"
       units="px"
       originx="0"
       originy="0"
       spacingx="1.0000001"
       spacingy="0.99999991"
       empcolor="#0099e5"
       empopacity="0.30196078"
       color="#0099e5"
       opacity="0.14902"
       empspacing="5"
       enabled="true"
       visible="true" />
  </sodipodi:namedview>
  <defs
     id="defs1">
    <style
       id="style1">
      .cls-1 {
        fill: #6dc3c1;
      }

      .cls-2 {
        fill: #004264;
      }
    </style>
  </defs>
  <path
     class="cls-1"
     d="m 1032.6911,137.07492 c 0.02,-21.63 -11.68,-41.659997 -30.53,-52.269997 l -240.60002,-135.36 h 0.01 v -65.900003 c 0,-14.49 -11.75,-26.23 -26.23,-26.23 h -372.96 c -14.49,0 -26.23,11.75 -26.23,26.23 v 65.900003 0 l -240.600006,135.36 c -18.86,10.61 -30.55,30.639997 -30.53,52.269997 l 0.41,390.54 -0.41,390.54 c -0.02,21.63 11.68,41.66 30.53,52.27 L 336.15108,1105.7849 v 0 65.9 c 0,14.49 11.75,26.23 26.23,26.23 h 372.96 c 14.49,0 26.23,-11.75 26.23,-26.23 v -65.9 h -0.01 L 1002.1611,970.42492 c 18.86,-10.61 30.55,-30.64 30.53,-52.27 l -0.41,-390.54 z m -36.04002,390.55 v 5.98 c 0,0 0,0 0,0 l 0.41,384.6 c 0,8.76 -4.73,16.88 -12.37,21.18 l -232.46,130.78998 h -406.76 L 113.01107,939.38492 c -7.64,-4.3 -12.38,-12.41 -12.37,-21.18 l 0.41,-384.6 h 0.01 v -5.98 c 0,0 0,-5.98 0,-5.98 h -0.01 l -0.41,-384.6 c 0,-8.76 4.73,-16.88 12.37,-21.18 L 345.47108,-14.925077 h 406.76 l 232.46,130.789997 c 7.64,4.3 12.38,12.41 12.37,21.18 l -0.41,384.6 h -0.01 v 5.98 z"
     id="path11"
     inkscape:export-filename="path11.svg"
     inkscape:export-xdpi="96"
     inkscape:export-ydpi="96"
     style="fill:#004264;fill-opacity:1"
     transform="matrix(0.63404447,0,0,0.63404447,192.00083,205.46868)" />
  <g
     id="g11"
     transform="matrix(0.56867444,0,0,0.56867444,230.40941,262.22366)"
     style="display:inline">
    <path
       class="cls-1"
       d="m 846.00691,402.42814 c -8.72879,11.44782 -18.02928,21.17709 -28.47664,29.62003 -1.57564,1.14339 -2.43318,1.71857 -3.43365,1.71857 -0.57169,0 -1.28631,-0.28584 -2.29026,-0.85754 l -17.02882,-10.30444 c 22.46689,-17.02881 36.91959,-34.77225 47.36695,-57.6679 l 1.28631,-0.42878 20.46247,7.58541 0.28585,1.42924 c -1.86149,3.57657 -3.7195,6.8673 -5.86684,10.30443 l 18.31513,-0.28584 10.87613,-0.85754 12.4483,11.59074 c 1.28631,1.1434 2.00441,2.00442 2.00441,3.00489 0,0.71462 -0.28585,1.57216 -0.85755,2.86195 -18.02928,38.78109 -41.21077,65.25331 -81.85335,83.85428 -1.86149,0.71462 -2.86195,1.1434 -3.7195,1.1434 -0.71461,0 -1.43271,-0.28585 -2.43318,-1.1434 l -17.74343,-13.73808 c 31.91029,-10.44388 61.96258,-33.19661 77.98744,-67.97234 l -27.33325,0.14292 z m 40.63909,-30.90983 7.44249,-5.29514 1.42923,-0.14293 c 5.29514,4.43412 10.30444,9.44341 14.59563,15.16733 l -0.14293,1.42924 -7.87125,5.58098 h -1.43272 c -4.4376,-5.86683 -8.44295,-10.59028 -14.16686,-15.45317 l 0.14293,-1.28631 z m 13.45225,-9.01464 7.29955,-5.29514 1.42924,-0.14293 c 5.29514,4.43761 9.87218,9.01464 14.16685,14.73856 l -0.14292,1.42923 -7.44248,5.43807 h -1.42923 c -4.4376,-5.86684 -8.30003,-10.01859 -14.02394,-14.88148 z"
       id="path5"
       inkscape:export-filename="path11.svg"
       inkscape:export-xdpi="96"
       inkscape:export-ydpi="96"
       style="fill:#7addd1;fill-opacity:1;stroke-width:0.348594" />
    <path
       class="cls-1"
       d="m 864.20385,537.54874 c 0,2.29027 0,5.29514 -0.14293,7.44248 6.72438,-5.29514 14.16687,-11.87659 19.03323,-17.45759 h -56.81036 l -24.75714,0.42878 -1.00046,-1.14339 v -18.74738 l 1.28631,-0.85755 24.18196,0.42877 h 63.67766 l 14.30978,-0.71462 10.0186,13.45225 c 0.42876,0.71462 0.71461,1.28631 0.71461,2.00441 0,0.85754 -0.28585,1.71857 -1.14338,2.71903 -7.15315,8.7288 -19.74786,21.60934 -31.48153,32.05322 -2.29026,2.00442 -3.00488,2.00442 -5.15221,0.57169 l -13.1664,-8.87171 c -1.42923,30.7669 -9.58634,51.08645 -34.20056,69.25865 -1.00046,0.71462 -1.71857,1.00047 -2.57611,1.00047 -0.85753,0 -1.86149,-0.42877 -3.1478,-1.14339 l -19.03323,-9.73274 c 29.90587,-17.17174 35.91913,-35.48687 35.34394,-70.54846 l 1.00047,-1.14338 h 22.03811 l 1.00046,1.00046 z"
       id="path6"
       style="fill:#7addd1;fill-opacity:1;stroke-width:0.348594" />
    <g
       id="g12"
       transform="translate(0,7.6115972)"
       style="display:inline">
      <path
         class="cls-1"
         d="m 816.81217,683.47126 -18.17221,0.42877 -1.00046,-1.14339 v -18.31513 l 1.28631,-0.85753 17.60051,0.42876 h 8.30003 v -25.18591 l 1.14338,-1.00047 h 19.60492 l 1.1434,1.14339 v 25.04299 h 20.31954 V 638.6839 l 1.14339,-1.00046 h 20.0337 l 1.14338,1.14339 v 25.18591 h 5.29514 l 20.46248,-0.42876 1.28631,0.85753 v 18.31513 l -1.00047,1.14339 -20.74832,-0.42877 h -5.58098 c -1.00047,18.31513 -3.86243,31.76737 -10.0186,41.21078 -8.30002,13.30932 -22.03811,23.03858 -37.34836,28.1908 -1.14338,0.28585 -2.00441,0.57169 -2.71903,0.57169 -1.00046,0 -1.71857,-0.42877 -2.86195,-1.43272 l -16.45713,-13.30932 c 21.17709,-5.43807 33.05368,-12.73414 40.21032,-24.46781 4.72345,-7.87126 6.43853,-15.73902 7.01023,-30.76691 h -20.17663 v 1.57216 l 0.5717,25.32884 h -23.1815 l 0.71461,-25.61469 v -1.28631 h -8.01417 z"
         id="path7"
         style="fill:#7addd1;fill-opacity:1;stroke-width:0.348594" />
      <path
         class="cls-1"
         d="m 891.33459,631.10547 7.39019,-3.00488 c 0.24053,-0.0976 0.50547,-0.13595 0.76343,-0.11155 l 0.3207,0.0314 c 0.45666,0.0453 0.87148,0.27887 1.14339,0.64838 3.86242,5.26028 7.33442,10.90053 10.06391,17.04276 0.15687,0.35557 0.18126,0.75994 0.0697,1.12944 l -0.0314,0.11155 c -0.13944,0.4706 -0.48804,0.85058 -0.94469,1.02836 l -7.8364,3.10945 c -0.29979,0.11853 -0.62747,0.14293 -0.9412,0.0732 l -0.80525,-0.17778 c -3.00488,-6.72438 -5.86684,-12.30537 -10.30444,-18.31513 l 0.19521,-0.58912 c 0.14641,-0.44272 0.48454,-0.80177 0.9168,-0.97955 z"
         id="path8"
         style="fill:#7addd1;fill-opacity:1;stroke-width:0.348594" />
      <path
         class="cls-1"
         d="m 905.81867,625.79987 7.83988,-3.37788 c 0.29979,-0.12898 0.63096,-0.16384 0.94818,-0.10109 l 0.33813,0.0662 c 0.38694,0.0767 0.73902,0.2963 0.97606,0.61352 3.86242,5.12433 7.09389,10.39507 9.8199,16.53033 0.16384,0.3695 0.18475,0.7913 0.0557,1.17476 v 0 c -0.1464,0.43922 -0.47757,0.79479 -0.90286,0.97258 l -7.44248,3.10248 c -0.30676,0.12549 -0.64141,0.15687 -0.9656,0.0837 l -0.79131,-0.17778 c -3.00488,-6.72439 -5.86684,-11.73368 -10.30444,-17.74344 z"
         id="path9"
         style="fill:#7addd1;fill-opacity:1;stroke-width:0.348594" />
    </g>
    <path
       class="cls-1"
       d="m 833.14761,828.71749 c 14.02393,-6.58145 30.90983,-15.45317 45.93423,-26.3293 h 1.28631 l 14.02393,16.88589 -0.14292,1.42924 c -18.02928,11.73367 -38.92401,21.46642 -61.24448,29.76295 v 9.72926 c 0,4.00535 0.14293,6.15268 1.28632,7.58541 1.71856,2.00441 4.72344,2.43318 10.7332,2.43318 16.17128,0 29.47711,-1.00047 48.93912,-3.1478 l 1.14338,0.71462 0.85754,20.89124 -0.85754,1.00046 c -15.16732,1.28631 -36.20497,2.43319 -49.08203,2.43319 -13.88101,0 -24.90007,-1.28632 -31.05275,-9.01465 -4.00535,-4.86637 -4.2912,-11.87659 -4.2912,-21.60934 l 0.42878,-66.25377 1.00046,-1.00046 h 20.17662 l 1.00047,1.00046 -0.14293,33.48594 z m 49.08203,-35.34394 7.44248,-5.29515 1.43273,-0.14291 c 5.29513,4.4376 10.30443,9.44341 14.59563,15.16732 l -0.14293,1.42923 -7.87125,5.58099 h -1.43272 c -4.43761,-5.86684 -8.44295,-10.59028 -14.16686,-15.45317 z m 13.45224,-9.01464 7.29956,-5.29514 1.42924,-0.14293 c 5.29514,4.43412 9.87218,9.01465 14.16686,14.73856 l -0.14292,1.42923 -7.44249,5.43807 h -1.43272 c -4.4376,-5.86684 -8.30002,-10.0186 -14.02393,-14.88148 l 0.14292,-1.28631 z"
       id="path10"
       style="fill:#7addd1;fill-opacity:1;stroke-width:0.348594" />
  </g>
  <g
     id="g13"
     transform="matrix(1.0365295,0,0,1.0365295,-14.123985,-10.042197)">
    <path
       class="cls-2"
       d="M 399.20724,390.97923 C 345.81288,385.91707 339.94953,346.4182 339.94953,329.37428 V 309.1554 h 90.73383 V 275.43068 H 308.01649 v 52.37414 c 0,57.42373 33.5354,91.85423 94.42677,96.95078 l 28.69546,0.50388 V 343.31676 H 399.2057 v 47.6609 z"
       id="path1"
       inkscape:export-filename="path1.svg"
       inkscape:export-xdpi="96"
       inkscape:export-ydpi="96"
       style="fill:#004264;stroke-width:0.15648" />
    <polygon
       class="cls-2"
       points="2431.02,1363.12 3226.85,1363.12 3226.85,571.31 3027.4,571.31 3027.4,1152.56 2630.46,1152.56 2631.61,404.56 2432.16,404.56 "
       id="polygon1"
       transform="matrix(0.15648082,0,0,0.15648082,93.2278,212.12633)"
       style="fill:#004264" />
    <path
       class="cls-2"
       d="m 714.67566,274.90647 h -32.87968 l -54.71038,123.4524 11.02242,17.17688 91.05621,-24.89766 21.51618,38.2189 27.04769,-12.34325 -70.5995,-122.76231 7.54706,-18.84343 z m -0.0457,89.59306 -45.81919,12.40893 23.69746,-51.42741 22.12329,39.02006 z"
       id="path2"
       style="fill:#004264;stroke-width:0.15648" />
    <polygon
       class="cls-2"
       points="4786.55,1141.98 5280.71,570.19 5185.83,399.49 4525.79,399.49 4554.47,593.18 5006.63,593.18 4516.9,1159.85 4512.42,1165.02 4609.72,1335.68 5341.1,1335.68 5232.72,1141.98 "
       id="polygon5"
       transform="matrix(0.15648082,0,0,0.15648082,-376.81229,385.59349)"
       style="fill:#004264" />
    <path
       class="cls-2"
       d="m 568.42574,448.89941 h -32.87976 l -56.81348,122.92662 11.02249,17.17692 91.05464,-24.8977 21.51609,38.21891 27.04769,-12.34321 -70.5994,-122.76232 9.65173,-18.31768 z m -2.15006,89.06733 -45.81913,12.40888 23.69744,-51.4274 22.12169,39.02005 z"
       id="path3"
       style="fill:#004264;stroke-width:0.15648" />
    <path
       class="cls-2"
       d="m 436.80591,633.55797 h -74.40663 l 0.0204,65.79553 c 0,26.77233 -3.62878,57.50199 -31.92208,57.50199 h -2.63044 l 15.84681,27.26048 1.03591,-0.17832 c 46.25103,-7.96017 45.89894,-48.69057 45.64075,-78.43133 -0.0189,-2.11408 -0.036,-4.1702 -0.036,-6.15282 v -37.53195 h 18.51323 v 53.18319 h 36.8043 v 19.5804 c 0,15.31169 -4.31887,20.4787 -17.11274,20.4787 H 401.4632 v 29.72975 h 27.54376 c 30.84393,0 44.5986,-15.48534 44.5986,-50.20845 v -49.53556 h -36.80117 v -51.49002 z"
       id="path4"
       style="fill:#004264;stroke-width:0.15648" />
    <polygon
       class="cls-2"
       points="7916.38,1181.03 7688.75,1181.03 7688.75,1371.03 8346.18,1371.03 8346.18,1181.03 8096.33,1181.03 8096.33,585.17 8346.18,585.17 8346.18,404.56 7688.75,404.56 7688.75,585.17 7916.38,585.17 "
       id="polygon4"
       transform="matrix(0.15648082,0,0,0.15648082,-696.56743,570.25213)"
       style="fill:#004264" />
  </g>
</svg>
